<?xml version="1.0" encoding="UTF-8"?>
<!-- Created with Grafika (https://www.grafika.cc/) -->
<svg xmlns="http://www.w3.org/2000/svg" xmlns:svg="http://www.w3.org/2000/svg" xmlns:xlink="http://www.w3.org/1999/xlink" width="2048" height="1055.88" viewBox="0 0 3115.4 1606.39" preserveAspectRatio="xMidYMid meet">
	<g transform="matrix(1, 0, 0, 1, 1584.02783203125, 865.1414794921875)">
		<rect transform="matrix(0.9999998807907104, -0.000000003370096202104378, 0.000000003370096202104378, 0.9999998807907104, -26.326229095458984, -61.94761657714844)" x="-1557.7" y="-803.19" width="3115.4" height="1606.39" style="fill:#FDC5CE;" />
		<ellipse transform="matrix(0.9854757189750671, 0.16981440782546997, -0.16981440782546997, 0.9854757189750671, 114.55841827392578, -335.0726318359375)" cx="0" cy="0" rx="8.41" ry="9.73" style="fill:#F8526A;" />
		<ellipse transform="matrix(0.9854757189750671, 0.16981440782546997, -0.16981440782546997, 0.9854757189750671, 155.69503784179688, -321.79083251953125)" cx="0" cy="0" rx="8.41" ry="9.73" style="fill:#F8526A;stroke:#F8526A;stroke-linecap:round;stroke-linejoin:miter;stroke-miterlimit:11.47;stroke-width:1;" />
		<ellipse transform="matrix(0.9389488697052002, 0.344056099653244, -0.344056099653244, 0.9389488697052002, 136.66940307617188, -331.2532653808594)" cx="0" cy="0" rx="50.08" ry="72.18" style="fill:none;stroke:#F8526A;stroke-linecap:round;stroke-linejoin:round;stroke-width:13.49;" />
		<line transform="matrix(0.37174490094184875, -0.9283348917961121, 0.9283348917961121, 0.37174490094184875, 310.49334716796875, -9.257379531860352)" x1="71.16" y1="-290.5" x2="161.74" y2="-291.36" style="fill:none;stroke:#F8526A;stroke-linecap:round;stroke-linejoin:round;stroke-width:13.49;" />
		<line transform="matrix(0.37174490094184875, -0.9283348917961121, 0.9283348917961121, 0.37174490094184875, 338.23492431640625, -1.3680057525634766)" x1="85.93" y1="-290.03" x2="161.74" y2="-291.36" style="fill:none;stroke:#F8526A;stroke-linecap:round;stroke-linejoin:round;stroke-width:13.49;" />
		<path d="M-175.67,5.43 C-145.9,55.97 91.08,52.29 111.43,5.1" fill-rule="evenodd" style="fill:none;stroke:#F8526A;stroke-linecap:round;stroke-linejoin:round;stroke-width:13.49;" />
		<path d="M129.56,-236.51 C248.8,-152.69 -335.96,-164.45 -182.53,-239.17" fill-rule="evenodd" style="fill:none;stroke:#F8526A;stroke-linecap:round;stroke-linejoin:round;stroke-width:13.49;" />
		<line transform="matrix(0.17483942210674286, -0.9845973253250122, 0.9845973253250122, 0.17483942210674286, 208.1073760986328, -18.61964225769043)" x1="-40.25" y1="-91.04" x2="177.6" y2="-95.61" style="fill:none;stroke:#F8526A;stroke-linecap:round;stroke-linejoin:round;stroke-width:13.49;" />
		<line transform="matrix(0.17483942210674286, -0.9845973253250122, 0.9845973253250122, 0.17483942210674286, -84.76863098144531, -18.619644165039062)" x1="-39.24" y1="-85.36" x2="173.29" y2="-156.32" style="fill:none;stroke:#F8526A;stroke-linecap:round;stroke-linejoin:round;stroke-width:13.49;" />
		<path d="M-175.67,-39.66 C-59.34,-124.4 -1.42,30.88 123.02,-84.23" fill-rule="evenodd" style="fill:none;stroke:#F8526A;stroke-linecap:round;stroke-linejoin:round;stroke-width:13.49;" />
		<path d="M-187.46,-107.42 C-90.54,-197.43 16.73,-53.4 108.92,-128.9" fill-rule="evenodd" style="fill:none;stroke:#F8526A;stroke-linecap:round;stroke-linejoin:round;stroke-width:13.49;" />
		<path d="M-154.06,-188.55 C-203.34,-232.85 -166.79,-265.62 -118.18,-272.18" fill-rule="evenodd" style="fill:none;stroke:#F8526A;stroke-linecap:round;stroke-linejoin:round;stroke-width:13.49;" />
		<path d="M-118.18,-272.18 C-144.8,-336.43 -14.96,-314.86 -36.17,-369.78" fill-rule="evenodd" style="fill:none;stroke:#F8526A;stroke-linecap:round;stroke-linejoin:round;stroke-width:13.49;" />
		<path d="M-120.24,-277.98 C-114.68,-265.77 -92.62,-265.63 -80.02,-267.69" fill-rule="evenodd" style="fill:none;stroke:#F8526A;stroke-linecap:round;stroke-linejoin:round;stroke-width:13.49;" />
		<path d="M-33.82,-369.78 C14.67,-348.42 25.94,-303.38 -20.95,-284.26" fill-rule="evenodd" style="fill:none;stroke:#F8526A;stroke-linecap:round;stroke-linejoin:round;stroke-width:13.49;" />
		<path d="M11.32,-309.6 C58.51,-305.44 57.15,-249.14 6.36,-237.63" fill-rule="evenodd" style="fill:none;stroke:#F8526A;stroke-linecap:round;stroke-linejoin:round;stroke-width:13.49;" />
		<path d="M46.65,-269.99 C72.47,-266.54 84.76,-251.95 87.87,-237.63" fill-rule="evenodd" style="fill:none;stroke:#F8526A;stroke-linecap:round;stroke-linejoin:round;stroke-width:13.49;" />
		<g transform="matrix(0.7371320128440857, -0.033909305930137634, 0.033909305930137634, 0.7371320128440857, 27.988174438476562, 193.27842712402344)">
			<path d="M-559.62,-35.65 Q-581.67,-45.25 -588.89,-62.07 Q-596.11,-78.89 -585.47,-103.35 Q-576.53,-123.87 -557.75,-145.13 Q-538.9,-166.36 -512.84,-176.49 Q-486.79,-186.62 -458.77,-174.42 Q-426.02,-160.16 -438.47,-131.56 Q-445.76,-114.82 -461.41,-104.92 Q-477.03,-95.1 -496.53,-93.46 Q-516,-91.89 -534.44,-98.45 Q-538.89,-89.82 -540.19,-86.84 Q-546.56,-72.21 -543.82,-64.78 Q-541,-57.32 -529.65,-52.38 Q-513.56,-45.38 -498.91,-47.83 Q-484.14,-50.32 -463.76,-59.54 L-453.65,-55.13 Q-510.78,-14.38 -559.62,-35.65 ZM-525.8,-111.74 Q-514.55,-107.54 -501.48,-110.33 Q-488.3,-113.16 -477.4,-121.49 Q-466.47,-129.89 -461.14,-142.12 Q-455.82,-154.35 -463.32,-157.61 Q-474.02,-162.27 -492.53,-147.99 Q-510.96,-133.68 -525.8,-111.74 ZM-360.26,36.7 Q-379.25,30.95 -385.08,18.15 Q-390.89,5.28 -386.38,-9.61 Q-384.4,-16.14 -380.4,-23.89 Q-376.29,-31.69 -372.27,-38.93 Q-368.16,-46.23 -366.81,-48.22 Q-361.09,-58.35 -355.69,-68.24 Q-350.26,-78.21 -348.28,-84.75 Q-343.48,-100.63 -354.72,-104.03 Q-362.77,-106.47 -371.42,-100.38 Q-380.04,-94.36 -387.63,-82.73 L-439.07,10.76 L-483.9,-2.81 L-403.74,-148.4 L-358.99,-134.85 L-367.31,-119.7 Q-346.47,-132.39 -325.57,-126.06 Q-309.77,-121.28 -303.07,-109.71 Q-296.35,-98.22 -301.71,-80.52 Q-304.45,-71.48 -310.01,-61.05 Q-315.47,-50.68 -324.3,-36.02 Q-329.73,-27.13 -334.57,-18.56 Q-339.33,-9.96 -340.91,-4.72 Q-342.8,1.51 -341.1,5.76 Q-339.32,10.03 -332.49,12.1 Q-323.14,14.93 -315.5,9.94 Q-307.85,4.96 -298.07,-7.34 L-284.93,-3.36 Q-306.83,27.33 -325.49,34.45 Q-344.07,41.6 -360.26,36.7 ZM-273.51,57.18 Q-288.86,54.22 -296.45,42.81 Q-304.03,31.41 -300.33,12.23 Q-298.8,4.28 -293.76,-8.01 L-257.29,-94.02 L-267.81,-96.05 L-262.85,-108.36 L-252.25,-106.31 L-234.25,-148.52 L-185.71,-145.79 L-206.34,-97.46 L-187.17,-93.76 L-192.21,-81.48 L-211.3,-85.16 L-250.27,6.68 Q-252.44,11.2 -253.49,16.66 Q-254.72,23.05 -252.21,26.36 Q-249.68,29.6 -242.66,30.95 Q-233.39,32.74 -223.93,26.48 Q-214.4,20.23 -208.49,8.43 L-195.08,11.02 Q-213.57,43.19 -234.5,51.93 Q-255.35,60.68 -273.51,57.18 ZM-170.65,75.11 Q-189.16,73.47 -200.37,59.73 Q-211.51,45.99 -209.13,19.11 Q-207.01,-4.85 -195.19,-30.42 Q-183.29,-55.99 -162.69,-72.57 Q-142.1,-89.16 -115.93,-86.85 Q-102.64,-85.67 -96.56,-80.59 Q-90.47,-75.51 -91.13,-68.08 L-91.33,-65.79 L-86.26,-82.63 L-39.61,-78.5 L-72.67,29.58 Q-74.36,34.29 -74.85,39.83 Q-76.08,53.74 -62.8,54.92 Q-53.79,55.72 -46.4,47.92 Q-39.01,40.05 -33.93,26.79 L-20.26,28 Q-35.36,61.89 -54.1,72.82 Q-72.84,83.76 -90.71,82.18 Q-104.31,80.97 -111.94,72.65 Q-119.49,64.25 -119.78,49.56 Q-130.37,62.01 -142.65,69.3 Q-154.84,76.51 -170.65,75.11 ZM-146.84,45.5 Q-138.77,46.21 -130.19,39.32 Q-121.54,32.43 -117.44,19.41 L-95.46,-52.44 Q-95.09,-56.63 -97.98,-60.95 Q-100.86,-65.35 -107.66,-65.95 Q-120.54,-67.09 -132.32,-52.91 Q-144,-38.81 -151.74,-18.05 Q-159.38,2.63 -160.82,18.84 Q-162.25,35.05 -157.98,39.97 Q-153.64,44.89 -146.84,45.5 ZM25.69,85.61 Q7.14,86.66 -5.94,74.68 Q-18.94,62.69 -20.46,35.74 Q-21.82,11.73 -13.8,-15.28 Q-5.71,-42.29 12.28,-61.68 Q30.27,-81.06 56.5,-82.54 Q69.81,-83.29 76.57,-79.14 Q83.32,-74.99 83.74,-67.54 L83.82,-66.19 L95.53,-141.75 L143.19,-150.96 L115.77,26.46 Q114.77,31.36 115.09,36.91 Q115.45,43.41 118.7,46.01 Q121.94,48.53 129.08,48.13 Q138.11,47.62 144.33,39.47 Q150.55,31.33 153.7,18.11 L167.33,17.34 Q150.88,76.55 105.38,79.12 Q92.07,79.87 83.35,73.21 Q74.7,66.54 72.03,53.02 Q64.28,66.5 52.87,75.65 Q41.54,84.72 25.69,85.61 ZM44.99,52.88 Q52.75,52.44 60.28,44.86 Q67.88,37.27 70.09,24.43 L70,22.84 L81.66,-52.4 Q78.08,-63.64 67.7,-63.06 Q54.78,-62.33 45.17,-46.6 Q35.64,-30.95 30.98,-9.3 Q26.39,12.26 27.31,28.51 Q28.23,44.76 33.16,49.01 Q38.17,53.26 44.99,52.88 ZM192.3,-113.02 Q181.72,-111.31 173.09,-117.48 Q164.53,-123.74 162.82,-134.32 Q161.12,-144.9 167.27,-153.61 Q173.51,-162.33 184.09,-164.04 Q194.67,-165.74 203.4,-159.43 Q212.22,-153.13 213.92,-142.55 Q215.62,-131.97 209.22,-123.3 Q202.89,-114.72 192.3,-113.02 ZM199.48,70.27 Q184.04,72.76 173,64.65 Q161.97,56.54 158.86,37.26 Q157.57,29.26 158.09,15.99 L163.35,-90.59 L209.51,-98.02 L203.98,14.87 Q203.5,19.86 204.38,25.34 Q205.41,31.77 208.91,34.02 Q212.4,36.19 219.45,35.06 Q228.78,33.55 235.51,24.43 Q242.32,15.29 243.83,2.18 L257.31,0.01 Q250.97,36.57 234.32,51.96 Q217.74,67.33 199.48,70.27 ZM283.09,55.17 Q267.84,58.62 256.31,51.21 Q244.79,43.81 240.49,24.76 Q238.7,16.86 238.39,3.59 L237.29,-89.84 L226.84,-87.47 L226.44,-100.73 L236.97,-103.11 L236.53,-149 L282.1,-165.97 L282.58,-113.42 L301.63,-117.73 L301.94,-104.45 L282.97,-100.16 L284.12,-0.4 Q283.95,4.6 285.17,10.02 Q286.61,16.37 290.24,18.4 Q293.85,20.35 300.82,18.77 Q310.04,16.69 316.18,7.16 Q322.41,-2.38 323.09,-15.56 L336.41,-18.57 Q332.38,18.31 316.72,34.71 Q301.13,51.09 283.09,55.17 ZM392.31,26.92 Q369.51,34.57 352.35,27.35 Q335.17,20.06 326.68,-5.23 Q319.65,-26.15 319.65,-54.62 Q319.71,-83.11 332.56,-108.19 Q345.41,-133.27 374.38,-142.99 Q413.82,-156.23 430.36,-106.94 L430.49,-106.56 Q431.57,-106.59 433.98,-107.4 Q444.14,-110.81 455.56,-120.67 Q467.06,-130.56 475.25,-141.85 L480.84,-134.43 Q475.06,-121.94 462.94,-110.42 Q450.86,-99 434.84,-90.6 Q441.78,-61.7 438.67,-37.29 Q435.53,-12.96 423.34,3.86 Q411.13,20.6 392.31,26.92 ZM395.36,-4.92 Q402.73,-7.4 407.25,-18.38 Q411.85,-29.38 412.44,-45.82 Q413.09,-62.37 409.58,-81.04 Q400.6,-80.11 396.88,-91.18 Q392.64,-103.82 400.86,-111.02 Q396.82,-121.05 393.05,-124.05 Q389.35,-127.08 383.18,-125.01 Q373.02,-121.6 368.44,-103.57 Q363.84,-85.61 364.91,-62.94 Q365.96,-40.35 371.24,-24.63 Q376.22,-9.8 381.32,-5.82 Q386.4,-1.92 395.36,-4.92 ZM478.38,-28.35 Q489.74,-32.17 495.15,-41.52 Q500.62,-50.89 495.55,-66.02 Q492.44,-75.27 485.05,-91.3 Q470.17,-125.41 465.15,-137.12 Q465.96,-110.26 459.79,-70.51 Q468.13,-69.12 470.5,-62.05 Q472.47,-56.18 470.13,-50.2 Q467.83,-44.32 462.03,-42.37 Q455.56,-40.2 452.32,-43.63 Q456.05,-32.5 462.26,-28.72 Q468.52,-25.04 478.38,-28.35 ZM523.86,-19.95 Q509.56,-13.63 497.32,-14.82 Q485.08,-16.01 476.48,-22.72 Q467.8,-29.39 463.6,-38.9 Q459.28,-48.71 460.72,-58.02 Q462.05,-67.37 467.15,-73.53 Q469.6,-99.43 468.77,-124.49 Q468.02,-149.58 464.89,-177.7 L506.27,-203.08 Q524.59,-165.7 547.74,-122.9 Q557.05,-105.75 560.61,-97.69 Q563.62,-90.87 564.45,-85.85 Q574.83,-100.07 579.3,-110.19 L591.79,-115.71 Q582.47,-85.31 562.67,-58.43 Q558.1,-45.39 547.39,-35.45 Q536.64,-25.59 523.86,-19.95 Z" fill="#F8526A" />
			<path d="M507.42,-207.04 C506.3,-207.36 505.11,-207.2 504.12,-206.59 L462.74,-181.21 C461.38,-180.37 460.62,-178.83 460.8,-177.24 C462.22,-164.48 463.13,-152.37 463.81,-140.57 C462.26,-140.04 461.16,-138.63 461.03,-136.99 C461.08,-135.3 461.01,-133.38 461.02,-131.6 C458.43,-128.95 455.81,-126.31 452.88,-123.79 C452.88,-123.79 452.87,-123.79 452.87,-123.79 C445.66,-117.57 439,-113.51 433,-111.44 C427.43,-126.63 420.07,-137.78 410.32,-144.06 C399.87,-150.79 387.03,-151.58 373.07,-146.89 C352.92,-140.13 337.94,-127.71 328.9,-110.06 C320.04,-92.78 315.57,-74.24 315.53,-54.63 C315.53,-54.62 315.53,-54.62 315.53,-54.61 C315.53,-40.54 316.84,-27.78 319.4,-16.27 C319.25,-16.12 319.11,-15.95 318.98,-15.77 C318.56,-7.58 316.45,-0.78 312.74,4.91 C312.73,4.92 312.73,4.92 312.72,4.93 C309.06,10.61 304.93,13.62 299.92,14.76 C295.8,15.69 293.27,15.33 292.23,14.78 C291.2,14.2 290,12.69 289.19,9.11 C288.44,5.81 288.13,2.69 288.23,-0.26 C288.23,-0.32 288.24,-0.39 288.23,-0.45 L287.13,-96.88 L302.85,-100.44 C304.76,-100.87 306.1,-102.59 306.06,-104.55 L305.74,-117.82 C305.71,-119.06 305.13,-120.21 304.16,-120.97 C303.19,-121.73 301.92,-122.01 300.72,-121.74 L286.65,-118.56 L286.21,-166.01 C286.2,-167.35 285.53,-168.6 284.43,-169.36 C283.32,-170.12 281.92,-170.29 280.66,-169.83 L235.1,-152.85 C233.47,-152.25 232.4,-150.69 232.42,-148.96 L232.83,-106.4 L225.54,-104.75 C223.62,-104.31 222.27,-102.58 222.33,-100.61 L222.72,-87.35 C222.76,-86.12 223.34,-84.98 224.31,-84.22 C225.29,-83.47 226.54,-83.19 227.74,-83.46 L233.23,-84.7 L234.27,3.64 C234.27,3.65 234.27,3.67 234.27,3.69 C234.39,8.79 234.72,13.19 235.17,17.21 C234.29,18.88 233.32,20.48 232.21,21.97 C232.21,21.97 232.2,21.98 232.2,21.98 C228.18,27.42 223.88,30.17 218.8,30.99 C214.63,31.66 212.13,31.15 211.12,30.53 C210.14,29.89 209.03,28.3 208.44,24.69 C207.9,21.34 207.79,18.21 208.08,15.27 C208.08,15.21 208.09,15.14 208.09,15.07 L213.63,-97.82 C213.69,-99.06 213.19,-100.26 212.26,-101.09 C211.33,-101.92 210.09,-102.28 208.86,-102.09 L162.7,-94.65 C160.78,-94.34 159.34,-92.73 159.24,-90.79 L154.07,13.97 L153.47,14 C151.65,14.11 150.12,15.39 149.69,17.16 C147.69,25.56 144.76,32.13 141.06,36.97 C137.47,41.67 133.69,43.74 128.84,44.02 C124.63,44.26 122.19,43.49 121.26,42.77 C120.35,42.03 119.4,40.34 119.2,36.68 C119,33.29 119.22,30.17 119.8,27.28 C119.82,27.21 119.83,27.15 119.84,27.09 L147.26,-150.33 C147.47,-151.66 147.01,-153 146.05,-153.93 C145.08,-154.86 143.73,-155.26 142.41,-155 L94.75,-145.79 C93.05,-145.46 91.73,-144.1 91.46,-142.38 L81.83,-80.22 C80.87,-81.1 79.87,-81.94 78.72,-82.65 C73.1,-86.11 65.61,-87.18 56.27,-86.65 C37.82,-85.61 21.9,-78.09 9.26,-64.47 C-3.17,-51.08 -12.19,-35.01 -17.75,-16.46 C-17.75,-16.46 -17.75,-16.45 -17.75,-16.45 C-21.85,-2.63 -24.17,10.69 -24.67,23.48 L-33.57,22.69 C-35.4,22.53 -37.12,23.6 -37.78,25.32 C-41.02,33.79 -44.94,40.35 -49.4,45.1 C-49.4,45.1 -49.4,45.1 -49.4,45.11 C-53.7,49.63 -57.7,51.24 -62.44,50.82 C-66.15,50.49 -68.08,49.43 -69.24,47.99 C-70.39,46.55 -71.1,44.18 -70.75,40.19 C-70.45,36.81 -69.79,33.75 -68.8,30.97 C-68.78,30.91 -68.76,30.85 -68.74,30.79 L-35.67,-77.3 C-35.31,-78.49 -35.5,-79.78 -36.19,-80.8 C-36.88,-81.83 -38.01,-82.5 -39.24,-82.61 L-85.9,-86.73 C-87.84,-86.9 -89.64,-85.68 -90.2,-83.82 L-91.11,-80.81 C-91.94,-81.85 -92.85,-82.86 -93.92,-83.75 C-98.99,-87.98 -106.25,-90.12 -115.57,-90.95 C-133.97,-92.57 -150.81,-87.43 -165.28,-75.78 C-179.51,-64.32 -190.75,-49.72 -198.92,-32.16 C-198.92,-32.16 -198.93,-32.15 -198.93,-32.15 C-204.96,-19.1 -209.17,-6.29 -211.51,6.27 C-211.74,6.35 -211.96,6.46 -212.17,6.59 C-215.84,13.92 -220.5,19.31 -226.19,23.03 C-226.2,23.04 -226.2,23.04 -226.21,23.04 C-231.84,26.78 -236.83,27.88 -241.88,26.91 C-246.03,26.11 -248.2,24.77 -248.94,23.85 C-249.64,22.9 -250.14,21.03 -249.45,17.43 C-248.8,14.1 -247.83,11.13 -246.56,8.46 C-246.53,8.41 -246.51,8.35 -246.48,8.29 L-208.81,-80.49 L-192.98,-77.43 C-191.06,-77.06 -189.14,-78.1 -188.4,-79.91 L-183.36,-92.2 C-182.89,-93.34 -182.96,-94.63 -183.55,-95.72 C-184.13,-96.81 -185.18,-97.57 -186.39,-97.8 L-200.55,-100.54 L-181.92,-144.17 C-181.4,-145.4 -181.5,-146.82 -182.21,-147.96 C-182.92,-149.1 -184.14,-149.82 -185.48,-149.9 L-234.02,-152.63 C-235.75,-152.73 -237.36,-151.73 -238.04,-150.13 L-254.74,-110.98 L-262.07,-112.4 C-264.01,-112.77 -265.94,-111.72 -266.67,-109.89 L-271.63,-97.59 C-272.09,-96.45 -272.02,-95.16 -271.43,-94.09 C-270.84,-93.01 -269.8,-92.24 -268.59,-92.01 L-263.07,-90.95 L-296.85,-11.27 L-296.88,-11.28 C-298.49,-11.77 -300.24,-11.22 -301.29,-9.9 C-307.66,-1.9 -313.27,3.58 -317.74,6.5 C-321.9,9.2 -326,9.76 -331.29,8.16 C-335.18,6.98 -336.72,5.52 -337.29,4.19 C-337.95,2.5 -338.05,0.03 -336.97,-3.53 C-336.07,-6.52 -334.07,-10.96 -330.98,-16.53 C-330.98,-16.54 -330.98,-16.54 -330.98,-16.54 C-327.78,-22.21 -324.38,-27.99 -320.79,-33.87 C-320.79,-33.88 -320.78,-33.89 -320.78,-33.89 C-314.87,-43.7 -310.07,-52.1 -306.38,-59.11 L-306.37,-59.13 C-302.56,-66.26 -299.69,-72.98 -297.77,-79.32 C-293.99,-91.81 -294.33,-102.91 -299.51,-111.77 L-299.51,-111.78 C-304.56,-120.49 -313.12,-126.59 -324.38,-130 C-335.39,-133.33 -346.57,-132.9 -357.54,-128.94 L-355.38,-132.87 C-354.79,-133.96 -354.71,-135.26 -355.18,-136.41 C-355.65,-137.55 -356.61,-138.43 -357.8,-138.79 L-402.55,-152.34 C-404.41,-152.9 -406.41,-152.09 -407.35,-150.38 L-456.61,-60.91 L-462.12,-63.31 C-463.19,-63.78 -464.4,-63.77 -465.46,-63.29 C-478.83,-57.24 -490.26,-53.46 -499.59,-51.89 C-508.49,-50.4 -517.87,-51.74 -528.01,-56.15 C-534.99,-59.19 -538.62,-62.68 -539.96,-66.22 C-541.12,-69.38 -540.47,-75.88 -536.41,-85.2 C-535.86,-86.47 -534.04,-90.06 -532.29,-93.52 C-520.56,-89.84 -508.51,-88.36 -496.2,-89.35 C-496.19,-89.35 -496.19,-89.35 -496.18,-89.36 C-482.59,-90.5 -470.2,-94.53 -459.22,-101.44 C-459.21,-101.44 -459.21,-101.44 -459.21,-101.44 C-448.13,-108.44 -439.87,-118.04 -434.7,-129.91 C-430.23,-140.17 -429.63,-149.96 -433.6,-158.34 C-437.56,-166.71 -445.66,-173.2 -457.13,-178.19 C-476.62,-186.68 -495.98,-187.46 -514.34,-180.33 C-532.3,-173.34 -547.85,-162.48 -560.83,-147.87 C-560.83,-147.86 -560.83,-147.86 -560.84,-147.86 C-573.58,-133.43 -583.07,-119.16 -589.24,-104.99 C-596.61,-88.06 -598.06,-73 -592.68,-60.45 C-587.37,-48.09 -576.62,-38.56 -561.26,-31.87 C-531.98,-19.12 -500.29,-22.67 -467.25,-41.58 L-487.51,-4.79 C-488.1,-3.71 -488.18,-2.41 -487.71,-1.26 C-487.24,-0.11 -486.28,0.77 -485.09,1.13 L-440.27,14.7 C-438.41,15.27 -436.41,14.45 -435.47,12.75 L-384.12,-80.56 C-379.29,-87.95 -374.23,-93.39 -369.06,-97 C-369.06,-97.01 -369.05,-97.01 -369.05,-97.01 C-363.99,-100.58 -359.98,-101.32 -355.91,-100.09 C-353.09,-99.24 -352.06,-98.19 -351.39,-96.21 C-350.73,-94.22 -350.76,-90.77 -352.22,-85.94 C-353.41,-82.03 -355.77,-76.71 -359.3,-70.21 L-359.3,-70.22 C-362.89,-63.64 -366.59,-56.98 -370.39,-50.25 L-370.22,-50.53 C-371.33,-48.88 -373.1,-45.85 -375.86,-40.95 C-375.86,-40.94 -375.87,-40.94 -375.88,-40.93 C-378.57,-36.07 -381.29,-31.03 -384.04,-25.8 C-384.04,-25.8 -384.05,-25.79 -384.05,-25.78 C-386.81,-20.44 -388.91,-15.46 -390.32,-10.8 C-393.56,-0.09 -393.11,10.36 -388.83,19.85 C-388.83,19.85 -388.83,19.86 -388.83,19.86 C-384.34,29.72 -374.81,36.6 -361.45,40.64 C-349.71,44.19 -337.07,43.32 -324.02,38.3 L-324.01,38.3 C-317.85,35.95 -311.67,31.91 -305.4,26.41 C-305.05,33.48 -303.38,39.83 -299.88,45.09 C-294.2,53.63 -285.37,59.08 -274.29,61.22 C-261.27,63.73 -247.38,61.8 -232.91,55.72 L-232.9,55.72 C-225.77,52.74 -219,47.92 -212.51,41.45 C-211.04,49.66 -208.14,56.68 -203.57,62.32 C-203.57,62.32 -203.57,62.33 -203.56,62.33 C-195.43,72.29 -184.29,78.03 -171.02,79.21 C-159.76,80.2 -149.45,78.1 -140.55,72.84 C-140.55,72.84 -140.55,72.84 -140.55,72.84 C-134.29,69.12 -128.38,64.45 -122.82,58.89 C-121.51,65.33 -119,70.95 -115.01,75.4 C-115,75.41 -114.99,75.42 -114.98,75.43 C-109.13,81.81 -100.9,85.41 -91.07,86.28 C-78.2,87.42 -65.09,84 -52.03,76.38 C-41.42,70.19 -32.09,59.22 -23.63,43.92 C-21.7,58.54 -16.99,70.09 -8.73,77.7 C-8.73,77.71 -8.72,77.71 -8.72,77.71 C0.76,86.39 12.62,90.47 25.92,89.72 C37.21,89.08 47.21,85.45 55.44,78.86 L55.45,78.86 C61.22,74.23 66.29,68.78 70.71,62.61 C73.04,68.25 76.34,73.01 80.83,76.47 C80.84,76.47 80.84,76.48 80.85,76.48 C87.52,81.58 96.01,83.78 105.62,83.23 C121.66,82.33 135.53,76.27 146.52,65.31 C150.83,61.01 154.58,55.77 158.04,50.03 C160.83,57.63 164.88,63.79 170.56,67.96 C178.82,74.03 188.99,76.13 200.13,74.34 C213.22,72.23 225.6,65.65 237.11,54.98 L237.12,54.98 C240.02,52.29 242.66,49.18 245.08,45.7 C247.65,49.28 250.56,52.41 254.09,54.68 C262.71,60.22 272.99,61.67 284,59.19 C296.93,56.26 308.87,48.93 319.69,37.56 L319.69,37.55 C325.07,31.92 329.37,24.73 332.73,16.12 C337.68,23.01 343.65,28.13 350.74,31.14 C350.75,31.14 350.75,31.14 350.75,31.15 C363.27,36.41 377.76,36.14 393.62,30.82 C406.95,26.34 418.08,18.06 426.67,6.28 C426.67,6.28 426.67,6.27 426.68,6.27 C435.26,-5.57 440.59,-20 442.75,-36.77 C442.75,-36.77 442.75,-36.77 442.75,-36.77 C444.79,-52.73 443.59,-70.01 439.46,-88.49 C446.75,-92.51 453.48,-96.98 459.56,-101.97 C458.66,-92.42 457.45,-82.25 455.72,-71.14 C455.49,-69.13 456.76,-67.25 458.71,-66.7 C457.78,-64.16 457.06,-61.49 456.65,-58.62 C455.99,-54.33 456.25,-49.96 457.19,-45.59 C456.33,-45.64 455.79,-45.95 455.31,-46.46 C453.98,-47.86 451.85,-48.15 450.2,-47.16 C448.54,-46.17 447.8,-44.16 448.41,-42.32 C451.08,-34.38 454.76,-28.46 460.12,-25.2 C460.14,-25.19 460.16,-25.18 460.18,-25.17 C463.14,-23.43 466.53,-22.72 470.15,-22.76 C471.35,-21.62 472.6,-20.51 473.95,-19.47 C473.95,-19.47 473.95,-19.47 473.95,-19.47 C480.34,-14.49 488.11,-11.58 496.92,-10.73 C505.93,-9.85 515.5,-11.76 525.52,-16.18 C534.46,-20.13 542.7,-25.56 550.17,-32.42 C550.18,-32.43 550.18,-32.43 550.19,-32.44 C557.6,-39.31 562.99,-47.37 566.29,-56.44 C579.58,-74.58 589.43,-93.95 595.72,-114.5 C596.19,-116.04 595.72,-117.72 594.52,-118.79 C593.32,-119.85 591.6,-120.12 590.13,-119.47 L577.63,-113.96 C576.69,-113.55 575.94,-112.8 575.53,-111.86 C573.51,-107.27 570.05,-101.57 565.91,-95.38 C565.42,-96.69 564.99,-97.96 564.37,-99.36 C561.9,-104.95 557.59,-113.39 551.36,-124.86 L551.36,-124.87 C535.95,-153.36 522.15,-180.03 509.97,-204.89 C509.46,-205.94 508.53,-206.71 507.42,-207.04 ZM456.65,-58.62 C456.65,-58.63 456.65,-58.64 456.65,-58.65 L456.64,-58.6 C456.64,-58.61 456.65,-58.61 456.65,-58.62 ZM504.61,-197.23 C516.37,-173.38 529.47,-148.03 544.12,-120.95 C544.12,-120.94 544.12,-120.94 544.12,-120.94 C550.3,-109.55 554.57,-101.18 556.84,-96.03 C558.75,-91.69 559.92,-88.03 560.38,-85.18 C560.66,-83.55 561.88,-82.23 563.49,-81.85 C565.1,-81.46 566.79,-82.08 567.77,-83.42 C574.34,-92.41 579.05,-100.15 582.25,-107 L584.72,-108.09 C578.69,-91.56 570.35,-75.79 559.36,-60.87 C559.11,-60.54 558.92,-60.18 558.78,-59.79 C555.96,-51.74 551.29,-44.69 544.59,-38.47 C544.59,-38.47 544.59,-38.47 544.59,-38.47 C537.74,-32.19 530.29,-27.29 522.2,-23.71 C513.15,-19.72 505.02,-18.21 497.71,-18.92 C490.98,-19.58 485.41,-21.61 480.66,-24.86 C488.52,-27.73 494.76,-32.63 498.7,-39.44 L498.7,-39.44 C503.12,-47 503.06,-56.58 499.45,-67.33 C497.3,-73.73 493.76,-82.23 488.82,-92.94 L488.79,-93.02 C482.93,-106.45 480.59,-111.89 477.03,-120.1 C480.05,-124.19 482.58,-128.39 484.57,-132.7 C485.21,-134.08 485.04,-135.69 484.13,-136.91 L478.54,-144.33 C477.75,-145.37 476.52,-145.98 475.21,-145.97 C473.91,-145.95 472.68,-145.32 471.92,-144.27 C471.9,-144.25 471.88,-144.23 471.87,-144.21 C471.23,-154.34 470.39,-164.73 469.23,-175.53 L504.61,-197.23 ZM-486.44,-176.96 C-477.99,-176.63 -469.35,-174.53 -460.41,-170.64 C-450.04,-166.13 -443.84,-160.73 -441.04,-154.81 C-438.24,-148.9 -438.41,-142.01 -442.24,-133.2 C-446.79,-122.76 -453.82,-114.59 -463.61,-108.4 C-473.45,-102.21 -484.46,-98.61 -496.86,-97.56 C-496.86,-97.56 -496.86,-97.56 -496.86,-97.56 C-509.28,-96.56 -521.29,-98.14 -533.06,-102.33 C-535,-103.02 -537.15,-102.17 -538.1,-100.34 C-541.08,-94.56 -542.99,-90.72 -543.96,-88.48 C-548.4,-78.3 -550.17,-70.1 -547.68,-63.36 C-547.68,-63.35 -547.67,-63.34 -547.67,-63.33 C-545.25,-56.93 -539.44,-52.15 -531.29,-48.61 C-519.99,-43.68 -508.87,-41.99 -498.23,-43.77 C-498.22,-43.77 -498.22,-43.77 -498.22,-43.77 C-488.31,-45.44 -476.84,-49.26 -463.78,-55.06 L-462.29,-54.41 C-497.13,-31.46 -528.6,-26.63 -557.97,-39.42 C-572.02,-45.54 -580.78,-53.61 -585.11,-63.69 C-589.35,-73.57 -588.52,-86.03 -581.69,-101.71 C-575.95,-114.89 -566.97,-128.48 -554.67,-142.4 L-554.67,-142.41 C-542.51,-156.09 -528.13,-166.13 -511.35,-172.65 C-503.16,-175.84 -494.89,-177.28 -486.44,-176.96 ZM189.38,-168.48 C187.42,-168.55 185.44,-168.43 183.43,-168.1 C175.41,-166.81 168.65,-162.61 163.92,-156 C163.92,-156 163.92,-155.99 163.91,-155.99 C159.25,-149.39 157.47,-141.66 158.76,-133.67 C160.05,-125.67 164.17,-118.91 170.66,-114.16 C170.68,-114.15 170.69,-114.14 170.7,-114.13 C177.25,-109.45 184.96,-107.67 192.96,-108.96 C200.96,-110.24 207.74,-114.36 212.53,-120.86 C217.38,-127.42 219.28,-135.18 217.98,-143.21 C216.69,-151.23 212.46,-158.02 205.8,-162.78 C200.85,-166.35 195.25,-168.28 189.38,-168.48 ZM-469.14,-162.86 C-471.76,-162.85 -474.49,-162.36 -477.26,-161.45 C-482.78,-159.62 -488.63,-156.19 -495.04,-151.25 C-495.04,-151.25 -495.05,-151.24 -495.05,-151.24 C-507.73,-141.41 -519.11,-128.98 -529.21,-114.05 C-529.91,-113 -530.1,-111.69 -529.72,-110.49 C-529.33,-109.29 -528.42,-108.33 -527.24,-107.88 C-518.97,-104.8 -509.98,-104.3 -500.62,-106.3 C-500.62,-106.3 -500.61,-106.3 -500.61,-106.3 C-491.24,-108.32 -482.62,-112.32 -474.9,-118.22 C-474.89,-118.22 -474.89,-118.22 -474.89,-118.23 C-467.09,-124.22 -461.19,-131.7 -457.37,-140.48 C-455.43,-144.94 -454.42,-148.88 -454.95,-152.68 C-455.48,-156.47 -458.15,-159.85 -461.67,-161.38 C-464.01,-162.4 -466.52,-162.87 -469.14,-162.86 ZM189.14,-160.29 C193.39,-160.19 197.21,-158.83 200.99,-156.09 C201,-156.09 201,-156.09 201.01,-156.08 C206.1,-152.44 208.88,-147.98 209.86,-141.9 C210.83,-135.82 209.6,-130.74 205.91,-125.75 C202.26,-120.8 197.76,-118.07 191.65,-117.08 C185.55,-116.1 180.46,-117.29 175.51,-120.82 C170.59,-124.42 167.87,-128.87 166.89,-134.98 C165.9,-141.08 167.09,-146.21 170.63,-151.22 C174.22,-156.24 178.66,-158.99 184.74,-159.97 C186.26,-160.22 187.73,-160.33 189.14,-160.29 ZM278.03,-160.06 L278.46,-113.38 C278.47,-112.14 279.05,-110.97 280.03,-110.19 C281,-109.42 282.27,-109.13 283.49,-109.41 L297.63,-112.6 L297.75,-107.72 L282.06,-104.18 C280.17,-103.75 278.83,-102.06 278.86,-100.12 L280,-0.35 L280,-0.54 C279.88,3.18 280.27,7.01 281.16,10.93 C282.26,15.8 284.42,19.86 288.23,21.99 C288.25,22 288.27,22.01 288.29,22.02 C292.08,24.07 296.58,23.95 301.73,22.79 C308.99,21.15 315.1,16.43 319.63,9.41 L319.63,9.41 C321.58,6.42 323.08,3.14 324.28,-0.31 C325.21,2.13 326.15,4.56 327.23,6.76 C323.9,17.58 319.37,25.97 313.74,31.87 C313.74,31.87 313.73,31.87 313.73,31.88 C303.77,42.34 293.3,48.64 282.18,51.16 C272.85,53.27 265.28,52.08 258.54,47.75 C255.08,45.53 252.15,42.25 249.71,37.94 C254.94,27.93 258.8,15.53 261.36,0.71 C261.59,-0.6 261.17,-1.93 260.23,-2.88 C259.3,-3.83 257.97,-4.26 256.65,-4.05 L243.17,-1.88 C242.9,-1.66 242.66,-1.41 242.45,-1.13 L241.41,-89.88 C241.39,-91.13 240.82,-92.3 239.84,-93.07 C238.87,-93.84 237.6,-94.13 236.38,-93.85 L230.8,-92.59 L230.66,-97.46 L237.88,-99.1 C239.77,-99.53 241.11,-101.21 241.09,-103.15 L240.68,-146.15 L278.03,-160.06 ZM-469.16,-154.65 C-467.57,-154.67 -466.19,-154.37 -464.96,-153.84 C-463.49,-153.19 -463.29,-152.9 -463.1,-151.53 C-462.91,-150.16 -463.31,-147.45 -464.92,-143.76 C-468.19,-136.24 -473.13,-129.96 -479.91,-124.75 C-486.71,-119.56 -494.14,-116.12 -502.34,-114.36 C-508.32,-113.08 -513.82,-113.01 -519.01,-114.07 C-510.2,-126.25 -500.57,-136.53 -490.01,-144.73 L-490.01,-144.73 C-490.01,-144.73 -490,-144.74 -490,-144.74 C-484.07,-149.31 -478.89,-152.24 -474.68,-153.63 C-472.57,-154.32 -470.76,-154.64 -469.16,-154.65 ZM138.23,-145.81 L111.7,25.83 L111.73,25.64 C110.99,29.29 110.75,33.13 110.97,37.14 C111.26,42.13 112.71,46.49 116.13,49.22 C116.14,49.24 116.16,49.25 116.17,49.26 C119.57,51.9 124.04,52.54 129.31,52.24 C136.51,51.83 142.9,48.13 147.6,41.97 C150.17,38.6 152.3,34.66 154.1,30.27 C154.26,32.99 154.43,35.67 154.79,37.91 C154.83,38.15 154.91,38.35 154.95,38.59 C150.85,47.01 146.13,54.07 140.71,59.48 C131.06,69.1 119.44,74.2 105.15,75.01 C97.01,75.47 90.81,73.72 85.85,69.95 C81,66.2 77.71,60.53 76.07,52.22 C75.73,50.54 74.39,49.24 72.7,48.96 C71,48.68 69.31,49.48 68.46,50.97 C63.53,59.54 57.49,66.67 50.3,72.44 C43.42,77.94 35.29,80.94 25.46,81.5 C14.03,82.15 4.8,78.93 -3.16,71.64 C-3.16,71.64 -3.16,71.64 -3.16,71.64 C-10.75,64.64 -15.37,52.84 -16.35,35.51 C-17.23,20.05 -15.09,3.52 -9.86,-14.1 L-9.86,-14.11 C-9.86,-14.11 -9.86,-14.11 -9.86,-14.11 C-4.62,-31.57 3.75,-46.43 15.3,-58.88 C26.65,-71.1 40.2,-77.5 56.73,-78.43 C65.14,-78.9 71.03,-77.71 74.41,-75.63 C78.01,-73.42 79.42,-71.08 79.63,-67.31 L79.71,-65.96 C79.83,-63.86 81.52,-62.19 83.62,-62.09 C85.72,-61.99 87.56,-63.48 87.89,-65.56 L99.16,-138.26 L138.23,-145.81 ZM-231.6,-144.25 L-191.8,-142.01 L-210.13,-99.08 C-210.62,-97.93 -210.56,-96.63 -209.98,-95.53 C-209.39,-94.43 -208.34,-93.65 -207.12,-93.42 L-192.88,-90.67 L-194.74,-86.16 L-210.52,-89.2 C-212.43,-89.57 -214.33,-88.55 -215.09,-86.77 L-254.06,5.08 L-253.98,4.9 C-255.59,8.26 -256.77,11.93 -257.53,15.88 C-258.47,20.78 -258.13,25.37 -255.49,28.85 C-255.47,28.87 -255.46,28.88 -255.45,28.9 C-252.8,32.29 -248.63,33.99 -243.44,34.99 C-236.13,36.4 -228.63,34.52 -221.66,29.91 L-221.66,29.91 C-218.61,27.91 -215.87,25.45 -213.34,22.7 C-213.48,25.33 -213.61,27.95 -213.55,30.42 C-220.97,39.06 -228.52,44.97 -236.09,48.13 C-236.09,48.13 -236.09,48.13 -236.09,48.13 C-249.42,53.73 -261.53,55.29 -272.73,53.13 C-282.12,51.32 -288.58,47.21 -293.02,40.53 C-296.7,34.99 -298.03,27.47 -296.9,17.83 C-291.88,12.4 -286.8,6.36 -281.57,-0.97 C-280.8,-2.05 -280.6,-3.43 -281.03,-4.69 C-281.46,-5.94 -282.46,-6.92 -283.73,-7.3 L-288.92,-8.87 L-253.5,-92.42 C-253.02,-93.56 -253.07,-94.86 -253.66,-95.96 C-254.24,-97.06 -255.29,-97.83 -256.51,-98.07 L-262.13,-99.15 L-260.3,-103.67 L-253.03,-102.27 C-251.13,-101.9 -249.23,-102.91 -248.47,-104.7 L-231.6,-144.25 ZM-401.74,-143.49 L-365.04,-132.38 L-370.92,-121.69 C-371.82,-120.05 -371.5,-118.02 -370.16,-116.73 C-368.81,-115.44 -366.76,-115.22 -365.17,-116.19 C-352.06,-124.17 -339.6,-126.01 -326.77,-122.12 C-316.96,-119.15 -310.52,-114.36 -306.63,-107.65 C-306.63,-107.64 -306.63,-107.64 -306.63,-107.63 C-302.85,-101.18 -302.29,-92.82 -305.65,-81.71 C-307.38,-76 -310.03,-69.75 -313.64,-62.99 C-313.64,-62.98 -313.65,-62.98 -313.65,-62.97 C-317.24,-56.16 -321.97,-47.87 -327.83,-38.14 C-331.47,-32.19 -334.91,-26.33 -338.15,-20.58 C-338.16,-20.57 -338.16,-20.56 -338.17,-20.55 C-341.42,-14.68 -343.65,-9.9 -344.85,-5.91 C-346.29,-1.18 -346.51,3.32 -344.92,7.29 C-344.92,7.3 -344.91,7.32 -344.9,7.34 C-343.09,11.7 -338.89,14.46 -333.68,16.04 C-326.51,18.21 -319.29,17.33 -313.25,13.39 C-309.76,11.12 -306.1,7.69 -302.31,3.69 C-303.15,6.44 -303.92,9.11 -304.38,11.45 C-304.55,12.34 -304.56,13.15 -304.7,14.02 C-312.72,22.31 -320.26,28.05 -326.96,30.61 C-326.96,30.61 -326.96,30.61 -326.96,30.61 C-338.69,35.12 -349.22,35.74 -359.06,32.76 C-371.02,29.14 -378.05,23.66 -381.33,16.45 C-381.33,16.45 -381.33,16.45 -381.33,16.45 C-384.79,8.78 -385.2,0.72 -382.44,-8.42 C-381.21,-12.47 -379.32,-17.01 -376.74,-22 C-374.03,-27.15 -371.34,-32.12 -368.69,-36.91 L-368.68,-36.92 C-368.68,-36.93 -368.68,-36.93 -368.67,-36.93 C-365.96,-41.75 -364.08,-44.91 -363.4,-45.92 C-363.34,-46.01 -363.28,-46.1 -363.22,-46.2 C-359.4,-52.97 -355.68,-59.66 -352.07,-66.27 C-352.07,-66.27 -352.07,-66.28 -352.07,-66.28 C-348.37,-73.07 -345.8,-78.76 -344.34,-83.55 C-342.6,-89.31 -342.1,-94.37 -343.58,-98.81 C-345.07,-103.25 -348.85,-106.56 -353.53,-107.97 C-360.19,-109.99 -367.31,-108.3 -373.77,-103.75 C-380.08,-99.36 -385.81,-93.06 -391.08,-84.97 C-391.13,-84.89 -391.18,-84.8 -391.23,-84.71 L-441.07,5.86 L-477.84,-5.28 L-452.78,-50.79 C-452.27,-51.15 -451.77,-51.42 -451.26,-51.78 C-450.01,-52.81 -449.48,-54.47 -449.9,-56.03 L-401.74,-143.49 ZM392.33,-141.65 C397.3,-141.3 401.76,-139.78 405.87,-137.13 C414.07,-131.85 421.12,-121.54 426.46,-105.63 L426.59,-105.25 C427.16,-103.54 428.79,-102.4 430.59,-102.45 C432.26,-102.49 433.52,-102.9 435.29,-103.49 C442.75,-106 450.35,-110.73 458.25,-117.55 L458.25,-117.55 C459.18,-118.35 459.94,-119.22 460.83,-120.03 C460.75,-118.01 460.6,-115.89 460.47,-113.79 C460.34,-113.66 460.24,-113.53 460.11,-113.41 C460.11,-113.41 460.11,-113.41 460.11,-113.41 C460.11,-113.41 460.11,-113.41 460.1,-113.4 C452.35,-106.07 443.31,-99.69 432.93,-94.25 C431.26,-93.38 430.4,-91.48 430.84,-89.64 C435.37,-70.77 436.58,-53.5 434.58,-37.81 C432.56,-22.15 427.68,-9.15 420.01,1.44 C420.01,1.44 420.01,1.44 420.01,1.44 C412.31,11.98 402.76,19.07 391,23.01 C376.47,27.89 364.32,27.91 353.96,23.56 C346.83,20.54 340.9,14.69 336.08,5.93 C338.05,-1.3 339.54,-9.29 340.5,-18.12 C340.65,-19.45 340.14,-20.76 339.15,-21.64 C338.16,-22.53 336.8,-22.88 335.5,-22.59 L326.96,-20.65 C324.9,-30.82 323.77,-42.07 323.76,-54.61 L323.76,-54.61 C323.76,-54.61 323.76,-54.61 323.76,-54.62 C323.81,-72.99 327.95,-90.15 336.22,-106.31 C344.32,-122.1 357.22,-132.89 375.69,-139.09 C381.86,-141.16 387.35,-141.99 392.33,-141.65 ZM475.1,-135.21 L475.97,-134.04 C475.12,-132.37 474.19,-130.7 473.14,-129.05 C473.01,-129.35 472.72,-130.02 472.59,-130.31 C472.57,-130.88 472.52,-131.48 472.5,-132.05 C473.39,-133.09 474.25,-134.15 475.1,-135.21 ZM389.23,-129.83 C386.86,-130.08 384.33,-129.74 381.87,-128.91 C373.2,-126 367.67,-117.25 364.45,-104.58 L364.46,-104.59 C361.26,-92.14 360.07,-78.19 360.8,-62.75 C361.51,-47.42 363.66,-34.29 367.34,-23.32 C370.76,-13.14 373.95,-6.35 378.79,-2.57 C378.8,-2.57 378.81,-2.56 378.81,-2.56 C383.53,1.07 389.97,1.23 396.67,-1.02 C403.08,-3.17 407.78,-8.86 411.06,-16.8 C411.05,-16.8 411.05,-16.79 411.05,-16.79 L411.06,-16.81 C414.37,-24.75 416.15,-34.37 416.56,-45.66 L416.56,-45.68 C417,-57.05 416.01,-69.09 413.63,-81.8 C413.23,-83.9 411.29,-85.35 409.16,-85.13 C407.03,-84.91 405.77,-85.3 404.48,-86.33 C403.2,-87.35 401.86,-89.29 400.79,-92.49 C398.29,-99.93 399.25,-104.14 403.57,-107.92 C404.89,-109.07 405.33,-110.93 404.68,-112.55 C401.88,-119.5 399.33,-124.3 395.64,-127.25 C393.8,-128.75 391.59,-129.58 389.23,-129.83 ZM395.64,-127.25 C395.65,-127.25 395.65,-127.24 395.66,-127.24 L395.62,-127.27 C395.62,-127.27 395.63,-127.26 395.64,-127.25 ZM388.24,-121.79 C389.16,-121.71 389.82,-121.38 390.44,-120.87 C390.45,-120.86 390.47,-120.85 390.48,-120.83 C391.61,-119.94 393.72,-116.59 395.9,-111.8 C391.16,-106.05 390.21,-98.11 392.98,-89.87 C394.38,-85.69 396.39,-82.25 399.35,-79.89 C401.25,-78.37 403.55,-77.48 405.97,-77.1 C407.83,-66.13 408.71,-55.71 408.33,-45.98 C408.33,-45.98 408.33,-45.98 408.33,-45.97 C407.95,-35.36 406.26,-26.68 403.46,-19.96 C403.45,-19.96 403.45,-19.95 403.45,-19.94 C400.69,-13.25 397.47,-9.97 394.05,-8.82 C388.82,-7.07 385.9,-7.5 383.85,-9.08 C381.88,-10.62 378.36,-16.36 375.15,-25.94 C371.79,-35.94 369.71,-48.35 369.03,-63.14 L369.03,-63.14 C368.32,-77.92 369.48,-91.05 372.43,-102.54 C372.43,-102.55 372.43,-102.55 372.43,-102.55 C375.32,-113.93 379.62,-119.47 384.49,-121.11 C386.14,-121.66 387.32,-121.86 388.24,-121.79 ZM472.89,-108.96 C475.91,-102.03 477.1,-99.23 481.28,-89.65 C481.29,-89.63 481.3,-89.6 481.31,-89.57 C486.2,-78.97 489.66,-70.62 491.64,-64.71 C494.8,-55.29 494.48,-48.53 491.59,-43.59 C491.59,-43.59 491.59,-43.58 491.58,-43.58 C488.48,-38.22 483.87,-34.54 477.07,-32.25 C475.74,-31.81 474.53,-31.51 473.38,-31.28 C470.92,-34.08 468.89,-37.13 467.39,-40.53 C470.31,-42.49 472.63,-45.29 473.96,-48.7 C475.83,-53.48 476.01,-58.58 474.4,-63.36 C473.5,-66.07 471.85,-68.32 469.79,-70.15 C469.97,-70.39 470.12,-70.67 470.32,-70.9 C470.84,-71.54 471.17,-72.32 471.25,-73.14 C472.39,-85.22 472.81,-97.13 472.89,-108.96 ZM205.15,-93.15 L199.87,14.67 L199.88,14.47 C199.52,18.18 199.68,22.03 200.31,26 C201.11,30.92 203.01,35.12 206.69,37.48 C206.7,37.49 206.72,37.5 206.73,37.51 C210.39,39.79 214.89,39.96 220.11,39.12 C226.78,38.04 232.6,34.27 237.34,28.58 C238.2,31.79 239.24,34.78 240.46,37.54 C237.76,42.06 234.79,45.91 231.52,48.93 C231.52,48.94 231.52,48.94 231.52,48.94 C220.92,58.77 210.08,64.4 198.82,66.21 C189.37,67.73 181.9,66.08 175.44,61.33 C169.72,57.13 165.73,49.95 163.58,39.46 C166.49,33.06 169.14,26.19 171.3,18.45 C171.65,17.17 171.37,15.79 170.54,14.76 C169.7,13.73 168.42,13.16 167.1,13.23 L162.33,13.5 L167.3,-87.05 L205.15,-93.15 ZM-122.38,-83.02 C-120.38,-83.02 -118.35,-82.93 -116.29,-82.75 C-107.9,-82 -102.24,-79.97 -99.2,-77.43 C-95.95,-74.72 -94.9,-72.2 -95.23,-68.44 L-95.44,-66.15 C-95.62,-64.05 -94.19,-62.14 -92.11,-61.74 C-90.04,-61.34 -88,-62.58 -87.39,-64.6 L-83.28,-78.23 L-45.03,-74.85 L-76.61,28.38 L-76.55,28.19 C-77.81,31.69 -78.6,35.46 -78.95,39.46 C-79.42,44.76 -78.54,49.54 -75.67,53.13 C-72.81,56.72 -68.31,58.56 -63.16,59.02 C-55.88,59.66 -48.96,56.61 -43.41,50.75 C-43.41,50.75 -43.4,50.74 -43.4,50.74 C-38.6,45.62 -34.63,39.02 -31.32,31.16 L-26.65,31.57 C-35.84,50.55 -45.85,63.24 -56.18,69.27 C-68.1,76.22 -79.39,79.04 -90.35,78.07 C-98.64,77.34 -104.56,74.6 -108.89,69.88 C-113.13,65.15 -115.49,58.57 -115.67,49.48 C-115.7,47.77 -116.79,46.26 -118.4,45.68 C-120.01,45.11 -121.81,45.59 -122.92,46.89 C-129.72,54.9 -137,61.16 -144.75,65.75 C-152.1,70.1 -160.46,71.88 -170.29,71.01 C-181.69,70 -190.35,65.49 -197.18,57.13 L-197.18,57.13 C-197.18,57.13 -197.18,57.13 -197.18,57.13 C-201.79,51.44 -204.46,43.48 -205.16,33.25 C-200.47,27.44 -195.92,20.74 -191.51,13.07 C-190.85,11.92 -190.79,10.51 -191.34,9.3 C-191.89,8.1 -193,7.23 -194.3,6.98 L-202.85,5.33 C-200.57,-5.71 -196.84,-17.04 -191.45,-28.69 C-183.76,-45.22 -173.33,-58.72 -160.11,-69.37 C-148.74,-78.52 -136.35,-83.02 -122.38,-83.02 ZM-111.09,-70.1 C-119.88,-69.55 -128.17,-64.35 -135.48,-55.54 C-135.49,-55.54 -135.49,-55.54 -135.49,-55.54 C-143.63,-45.71 -150.31,-33.68 -155.59,-19.49 C-155.6,-19.49 -155.6,-19.48 -155.6,-19.48 C-160.79,-5.44 -163.92,7.18 -164.92,18.48 C-165.91,29.68 -165.55,37.52 -161.09,42.67 C-161.09,42.67 -161.08,42.68 -161.07,42.69 C-157.52,46.71 -152.64,49.11 -147.2,49.6 C-140.54,50.18 -133.89,47.56 -127.63,42.54 L-127.63,42.54 C-121.12,37.36 -116.43,29.92 -113.51,20.64 C-113.5,20.63 -113.5,20.62 -113.5,20.61 L-91.53,-51.24 C-91.44,-51.51 -91.39,-51.8 -91.36,-52.08 C-91.02,-55.93 -92.24,-59.77 -94.55,-63.23 C-97.23,-67.32 -101.94,-69.58 -107.29,-70.05 C-108.57,-70.17 -109.83,-70.18 -111.09,-70.1 ZM67.46,-67.17 C57.25,-66.59 48.48,-59.91 41.66,-48.74 L41.66,-48.74 C35.02,-37.84 30.14,-24.97 26.96,-10.17 C26.95,-10.16 26.95,-10.16 26.95,-10.16 C23.84,4.48 22.56,17.42 23.2,28.74 C23.84,39.97 25.32,47.68 30.47,52.13 C30.48,52.14 30.49,52.15 30.5,52.15 C34.59,55.62 39.77,57.29 45.22,56.99 C51.65,56.62 57.7,53.29 63.18,47.77 C68.93,42.04 72.56,34.33 74.15,25.13 C74.21,24.82 74.22,24.5 74.21,24.19 L74.14,23.04 L85.72,-51.77 C85.82,-52.39 85.77,-53.04 85.58,-53.64 C84.21,-57.95 82.04,-61.54 78.88,-63.96 C75.71,-66.37 71.68,-67.4 67.46,-67.17 ZM466.01,-62.03 C466.21,-61.61 466.43,-61.23 466.6,-60.74 C467.62,-57.69 467.55,-54.9 466.29,-51.7 C466.29,-51.7 466.29,-51.7 466.29,-51.7 C465.88,-50.65 465.32,-49.98 464.78,-49.26 C464.37,-52.03 464.37,-54.73 464.79,-57.39 C464.79,-57.41 464.79,-57.42 464.79,-57.44 C465.04,-59.15 465.57,-60.54 466.01,-62.03 ZM-108.02,-61.85 C-104.31,-61.53 -102.57,-60.46 -101.42,-58.7 C-101.41,-58.69 -101.41,-58.68 -101.4,-58.67 C-99.93,-56.46 -99.49,-54.7 -99.59,-53.03 L-121.37,18.19 L-121.37,18.2 C-123.92,26.28 -127.73,32.1 -132.76,36.1 C-132.76,36.1 -132.77,36.1 -132.77,36.11 C-137.95,40.26 -142.38,41.76 -146.47,41.39 C-150.09,41.07 -152.64,39.79 -154.88,37.26 C-156.11,35.83 -157.64,29.6 -156.72,19.2 C-155.8,8.88 -152.88,-3.08 -147.88,-16.62 L-147.88,-16.62 C-147.87,-16.62 -147.88,-16.62 -147.88,-16.63 C-142.85,-30.1 -136.59,-41.3 -129.15,-50.28 L-129.15,-50.29 C-121.81,-59.13 -115.01,-62.47 -108.02,-61.85 ZM67.93,-58.95 C70.64,-59.1 72.39,-58.55 73.88,-57.41 C75.23,-56.38 76.43,-54.56 77.41,-51.87 L65.94,22.21 C65.89,22.5 65.88,22.78 65.89,23.07 L65.95,24.09 C64.56,31.82 61.68,37.64 57.37,41.94 C57.36,41.95 57.36,41.95 57.35,41.96 C52.81,46.54 48.67,48.54 44.75,48.77 C41.13,48.97 38.43,48.07 35.84,45.88 C34.42,44.65 32.01,38.7 31.42,28.28 C30.84,17.94 32,5.68 35,-8.44 L35,-8.44 C35,-8.44 35.01,-8.44 35.01,-8.45 C38.03,-22.51 42.62,-34.49 48.69,-44.45 L48.69,-44.46 C54.68,-54.26 60.92,-58.55 67.93,-58.95 ZM459.69,-37.65 C459.74,-37.52 459.78,-37.38 459.84,-37.24 C459.95,-36.98 460.11,-36.74 460.23,-36.48 C460,-36.82 459.78,-37.25 459.55,-37.62 C459.6,-37.63 459.64,-37.65 459.69,-37.65 ZM331.39,-13.21 C331.09,-11.14 330.77,-9.09 330.41,-7.13 C329.83,-8.89 329.37,-10.79 328.87,-12.64 L331.39,-13.21 ZM-291.91,-1.17 L-291.85,-1.15 C-291.89,-1.09 -291.94,-1.04 -291.98,-0.98 C-291.96,-1.05 -291.93,-1.11 -291.91,-1.17 ZM251.96,5.04 C250.22,13.4 248.13,20.97 245.52,27.31 C245.19,26.14 244.79,25.12 244.5,23.85 C244.16,22.33 243.93,20.26 243.66,18.35 C245.38,14.47 246.62,10.28 247.38,5.78 L251.96,5.04 ZM-204.2,13.45 L-201.83,13.91 C-202.86,15.57 -203.89,17.18 -204.93,18.72 C-204.76,16.98 -204.45,15.21 -204.2,13.45 Z" fill="#F8526A" />
		</g>
		<path d="M-490.33,54.16 C-545.67,47.44 -541.95,134.9 -474.63,117.47" fill-rule="evenodd" style="fill:none;stroke:#F8526A;stroke-linecap:round;stroke-linejoin:round;stroke-width:32.08;" />
		<path d="M-455.77,26.97 C-507.57,9.29 -474.63,-73.79 -372.48,24.86" fill-rule="evenodd" style="fill:none;stroke:#F8526A;stroke-linecap:round;stroke-linejoin:round;stroke-width:33.08;" />
		<path d="M-301.06,49.96 C-332.86,57.16 -386.69,8.02 -407.5,-4.09" fill-rule="evenodd" style="fill:none;stroke:#F8526A;stroke-linecap:round;stroke-linejoin:round;stroke-width:33.08;" />
		<path d="M120.82,-314.48 C121.22,-303.7 130.28,-300.65 138.49,-307.97" fill-rule="evenodd" style="fill:none;stroke:#F8526A;stroke-linecap:round;stroke-linejoin:round;stroke-width:10.08;" />
		<path d="" fill-rule="evenodd" style="fill:none;stroke:#F76AAB;stroke-linecap:round;stroke-linejoin:round;stroke-width:32.08;" />
		<path d="M-491.4,119.78 C-451.76,119.78 -408.08,73.52 -373.5,25" fill-rule="evenodd" style="fill:none;stroke:#F8526A;stroke-linecap:round;stroke-linejoin:round;stroke-width:32.08;" />
		<path d="M-506.44,117.31 C-457.08,143.52 -411.8,72.39 -363.28,26.97" fill-rule="evenodd" style="fill:none;stroke:#F8526A;stroke-linecap:round;stroke-linejoin:round;stroke-width:32.08;" />
		<line transform="matrix(0.9981610774993896, 0.060616634786129, -0.060616634786129, 0.9981610774993896, -11.139119148254395, -8.67408561706543)" x1="119.83" y1="-241.92" x2="127.38" y2="-237.82" style="fill:none;stroke:#F8526A;stroke-linecap:round;stroke-linejoin:round;stroke-width:9.49;" />
		<line transform="matrix(0.9833276867866516, 0.18184183537960052, -0.18184183537960052, 0.9833276867866516, -39.480377197265625, -22.130268096923828)" x1="122.55" y1="-241.61" x2="128.36" y2="-238.88" style="fill:none;stroke:#F8526A;stroke-linecap:round;stroke-linejoin:round;stroke-width:9.49;" />
		<line transform="matrix(0.9164327383041382, -0.40018877387046814, 0.40018877387046814, 0.9164327383041382, 86.1202392578125, -85.62421417236328)" x1="-184.52" y1="-250.16" x2="-174.29" y2="-250.16" style="fill:none;stroke:#F8526A;stroke-linecap:round;stroke-linejoin:round;stroke-width:9.49;" />
		<ellipse transform="matrix(0.9399906992912292, 0.34120112657546997, -0.34120112657546997, 0.9399906992912292, -504.87396240234375, 128.8949432373047)" cx="0" cy="0" rx="22.01" ry="5.78" style="fill:#F8526A;stroke:#F8526A;stroke-linecap:round;stroke-linejoin:miter;stroke-miterlimit:11.47;stroke-width:1;" />
		<path d="M-314.12,167.86 L-314.09,167.83 Q-314.07,167.81 -313.17,167.49 Q-312.27,167.17 -311.63,166.91 Q-310.99,166.64 -310.27,166.32 L-309.54,166 L-308.09,165.32 L-306.62,164.64 L-305.22,163.96 L-304.59,163.67 Q-303.96,163.38 -303.4,163.14 L-302.84,162.9 L-300.98,162.11 L-300.31,161.82 L-298.85,161.29" fill-rule="evenodd" style="fill:none;stroke:#F8526A;stroke-linecap:round;stroke-linejoin:round;stroke-width:9.49;" />
		<path d="M-313.17,166.06 L-312.83,165.87 L-311.69,165.25 L-310.32,164.51 L-309.51,164.06 Q-308.7,163.62 -307.82,163.17 L-306.95,162.72 L-304.97,161.71 L-303.94,161.19 Q-302.91,160.66 -301.95,160.27 L-300.09,159.6" fill-rule="evenodd" style="fill:none;stroke:#F8526A;stroke-linecap:round;stroke-linejoin:round;stroke-width:9.49;" />
		<path d="M-315.92,168.71 L-315.92,168.68 Q-315.92,168.66 -315.31,168.18 Q-314.71,167.71 -313.73,167.1 Q-312.76,166.49 -312.08,166.1 L-311.4,165.71 L-309.85,164.8 L-308.15,163.79 L-306.22,162.66 L-305.3,162.12 Q-304.38,161.58 -303.43,161.11 Q-302.49,160.65 -301.55,160.22 L-299.45,159.38" fill-rule="evenodd" style="fill:none;stroke:#F8526A;stroke-linecap:round;stroke-linejoin:round;stroke-width:9.49;" />
		<path d="M-321.84,169.84 C-300.09,157.73 -291.64,133.32 -286.56,130.28" fill-rule="evenodd" style="fill:none;stroke:#F8526A;stroke-linecap:round;stroke-linejoin:round;stroke-width:8.49;" />
		<path d="M-192.85,202.67 L-192.84,202.64 Q-192.83,202.62 -192.63,202.38 L-192.42,202.14 L-192.03,201.73 L-191.6,201.27 L-191.39,201.02 Q-191.17,200.77 -190.94,200.46 L-190.71,200.14 L-190.22,199.42 L-189.7,198.73 L-189.19,198.03 L-188.75,197.41 L-188.27,196.72 L-187.82,196.04 L-187.37,195.32 L-186.91,194.64 L-186.49,193.98 L-186.08,193.31 L-185.68,192.72 L-185.25,192.09 L-184.87,191.55 L-184.58,191.11 L-184.26,190.6 L-184.69,191.38 L-185.02,191.9 L-185.38,192.44 L-185.75,193.1 L-186.15,193.74 L-186.6,194.43 L-187.08,195.14 L-187.52,195.79 L-188,196.42 L-188.49,197.07 L-188.98,197.69 L-189.48,198.31 L-189.94,198.89 L-190.16,199.2 Q-190.38,199.51 -190.62,199.81 Q-190.86,200.1 -191.06,200.38 L-191.26,200.66 L-191.67,201.24 L-192.03,201.76 L-192.32,202.22 L-192.55,202.56 Q-192.77,202.89 -192.92,203.14 Q-193.06,203.4 -192.93,203.08 Q-192.8,202.77 -192.64,202.49 L-192.47,202.2 L-192.11,201.61 L-191.76,201 L-191.38,200.31 L-190.97,199.61 L-190.55,198.91 L-190.35,198.55 Q-190.14,198.19 -189.9,197.85 L-189.65,197.5 L-189.17,196.76 L-188.68,196.01 L-188.08,195.15 L-187.54,194.32 L-187,193.54 L-186.47,192.8 L-186.03,192.15 L-185.65,191.62 L-185.32,191.17 L-184.9,190.56 L-185.38,191.23 L-185.73,191.76 L-186.11,192.29 L-186.51,192.87 L-186.94,193.48 L-187.35,194.05 L-187.54,194.34 Q-187.74,194.62 -187.96,194.89 L-188.18,195.16 L-188.51,195.61 L-189.1,196.42 L-189.65,197.16 L-190.09,197.76 L-190.25,198 Q-190.42,198.24 -190.61,198.44 Q-190.8,198.64 -191.02,198.9 Q-191.23,199.17 -191.41,199.43 L-191.59,199.69 L-191.9,200.12 L-192.28,200.66 L-192.66,201.18 L-192.81,201.4 Q-192.97,201.62 -192.84,201.36 Q-192.72,201.11 -192.55,200.85 L-192.38,200.59 L-192.07,200.13 L-191.77,199.7 L-191.46,199.28 L-191.08,198.73 L-190.77,198.3 L-190.44,197.88 L-190.08,197.35 L-189.72,196.83 L-189.37,196.35 L-188.99,195.78 L-188.63,195.22 L-188.33,194.77 L-188,194.32 L-187.68,193.84 L-187.33,193.3 L-187,192.75 L-186.59,192.11 L-186.24,191.47 L-185.86,190.85 L-185.5,190.2 L-185.19,189.63 L-184.9,189.06 L-184.64,188.49 L-184.42,187.94 L-184.16,187.35 L-183.93,186.83 L-183.6,186.14 L-183.38,185.59 L-183.19,185.07 L-182.98,184.57 L-182.77,184.05 L-182.48,183.38 L-182.24,182.8 L-181.98,182.21 L-181.76,181.64 L-181.53,181.07 L-181.41,180.81 L-181.05,180.28" fill-rule="evenodd" style="fill:none;stroke:#F8526A;stroke-linecap:round;stroke-linejoin:round;stroke-width:8.49;" />
		<path d="M-122.9,202.74 L-122.94,202.92 L-123.08,203.62 L-123.33,204.55 L-123.57,205.45 L-123.71,205.95 L-123.84,206.47 L-124.02,207.07 L-124.18,207.64 L-124.36,208.23 L-124.56,208.78 L-124.7,209.27 L-124.77,209.62 L-124.89,210.3" fill-rule="evenodd" style="fill:none;stroke:#F8526A;stroke-linecap:round;stroke-linejoin:round;stroke-width:8.49;" />
		<path d="M-122.95,203.69 L-122.98,203.76 Q-123.01,203.82 -123.11,204.12 L-123.22,204.42 L-123.35,204.91 L-123.51,205.46 L-123.66,205.95 L-123.8,206.47 L-124,207.03 L-124.16,207.56 L-124.29,208.05 L-124.43,208.58 L-124.51,209.03 L-124.71,210.14" fill-rule="evenodd" style="fill:none;stroke:#F8526A;stroke-linecap:round;stroke-linejoin:round;stroke-width:8.49;" />
		<path d="M-123.44,204.17 L-123.47,204.22 Q-123.49,204.27 -123.57,204.61 L-123.66,204.96 L-123.85,205.48 L-124.03,206.04 L-124.25,206.62 L-124.45,207.19 L-124.63,207.71 L-124.82,208.25 L-124.99,208.82 L-125.15,209.34 L-125.4,210.21 L-125.5,210.49 L-125.61,210.82" fill-rule="evenodd" style="fill:none;stroke:#F8526A;stroke-linecap:round;stroke-linejoin:round;stroke-width:8.49;" />
		<path d="M-123.11,202.65 L-123.11,202.67 Q-123.11,202.7 -123.14,202.88 Q-123.18,203.05 -123.25,203.25 Q-123.33,203.45 -123.36,203.61 Q-123.4,203.77 -123.42,203.95 Q-123.43,204.13 -123.48,204.29 L-123.54,204.45 L-123.59,204.62 Q-123.64,204.79 -123.67,204.97 L-123.7,205.16 L-123.8,205.58 L-123.93,206.02 L-124.08,206.42 L-124.22,206.81 L-124.29,207.05 Q-124.36,207.28 -124.35,207.54 L-124.34,207.81" fill-rule="evenodd" style="fill:none;stroke:#F8526A;stroke-linecap:round;stroke-linejoin:round;stroke-width:8.49;" />
		<path d="M-13.92,240.3 C4.71,229.99 1.48,215.33 26.42,161.7" fill-rule="evenodd" style="fill:none;stroke:#F8526A;stroke-linecap:round;stroke-linejoin:round;stroke-width:8.49;" />
		<path d="M146.78,169.14 C144.78,196.92 143.1,202.25 140.48,211.98" fill-rule="evenodd" style="fill:none;stroke:#F8526A;stroke-linecap:round;stroke-linejoin:round;stroke-width:8.49;" />
	</g>
</svg>